<?xml version="1.0" encoding="utf-8"?>
<!-- Generator: Adobe Illustrator 24.0.2, SVG Export Plug-In . SVG Version: 6.00 Build 0)  -->
<svg version="1.1" id="Calque_1" xmlns="http://www.w3.org/2000/svg" xmlns:xlink="http://www.w3.org/1999/xlink" x="0px" y="0px"
	 viewBox="0 0 129.1 158.2" style="enable-background:new 0 0 129.1 158.2;" xml:space="preserve">
<style type="text/css">
	.st0{fill:#AFCA0B;}
</style>
<path class="st0" d="M129.1,72.3v-8.9h-21.9c-1.7-7.5-5.4-14.4-10.6-20c13.7-10.2,21.9-26.2,21.9-43.3h-8.9c0,15-7.4,28.9-19.8,37.3
	c-15.1-10.6-35.3-10.6-50.3,0.1C27,29,19.5,15,19.5,0h-8.9c0,17.1,8.2,33.3,22,43.4c-5.2,5.6-8.9,12.5-10.6,20H0v8.9h21
	c0,0.3,0,0.5,0,0.8c0,14,6.7,27.1,18,35.3l2.6,29.7c-5.4,1.9-8.1,7.9-6.2,13.2c1.9,5.4,7.9,8.1,13.2,6.2c4.1-1.5,6.8-5.4,6.8-9.7
	c0-0.1,0-0.1,0-0.2h19c0,5.7,4.6,10.3,10.4,10.3s10.3-4.6,10.3-10.4c0-4.6-3-8.6-7.4-9.9l2.5-29.3c11.4-8.2,18.2-21.4,18.2-35.5
	c0-0.3,0-0.5,0-0.8L129.1,72.3z M64.6,38.3c5.5,0,11,1.3,15.9,3.8c-10.2,3.9-21.6,3.9-31.8,0C53.6,39.6,59.1,38.3,64.6,38.3
	L64.6,38.3z M64.5,54c8.5,0,16.8-2,24.3-5.8c4.4,4.3,7.5,9.6,9.2,15.5c-7.7,1.4-13.5,8-14.5,17l-1.9,22.7c-10.6,6-23.6,5.9-34.1-0.1
	l-1.9-22.6v-0.1c-0.9-7.8-7-14.4-14.5-16.5c1.6-6,4.8-11.5,9.3-15.9C47.8,52,56.1,54,64.5,54L64.5,54z M29.8,73.1
	c3.5,1.5,6.4,4.8,6.8,8.4l1.2,13.6C32.7,89,29.9,81.2,29.8,73.1z M45,149.3c-0.8,0-1.4-0.6-1.4-1.4s0.6-1.4,1.4-1.4
	c0.8,0,1.4,0.6,1.4,1.4S45.8,149.3,45,149.3L45,149.3z M84.7,149.1c-0.8,0-1.4-0.6-1.4-1.4c0-0.8,0.6-1.4,1.4-1.4s1.4,0.6,1.4,1.4
	C86.1,148.4,85.5,149.1,84.7,149.1L84.7,149.1z M78.7,137.4c-0.2,0.8-1,1.4-1.9,1.4H52.3c-0.9,0-1.6-0.5-1.9-1.4l-2-23.8
	c10.4,4.2,22,4.2,32.4,0.1L78.7,137.4z M91.3,95.4l1.2-13.8c0.5-4.1,2.8-8.1,6.9-9.1c0,0.2,0,0.4,0,0.6
	C99.4,81.2,96.5,89.1,91.3,95.4L91.3,95.4z"/>
</svg>
