<svg id="Calque_1" data-name="Calque 1" xmlns="http://www.w3.org/2000/svg" viewBox="0 0 414.93 107.25"><defs><style>.cls-1{fill:#1d1d1b;}.cls-2{fill:#afca0b;}</style></defs><path class="cls-1" d="M89.49,52.19v-6H74.84a29.33,29.33,0,0,0-7.08-13.39,36.09,36.09,0,0,0,14.63-29h-6a30.14,30.14,0,0,1-13.28,25,29.17,29.17,0,0,0-33.69,0,30.13,30.13,0,0,1-13.32-25h-6A36.05,36.05,0,0,0,24.83,32.87a29.15,29.15,0,0,0-7,13.34H3v6h14c0,.18,0,.35,0,.52A29.23,29.23,0,0,0,29.13,76.37l1.71,19.91a6.92,6.92,0,1,0,9.27,6.51v-.12H52.85A6.93,6.93,0,1,0,61.71,96l1.68-19.58A29.22,29.22,0,0,0,75.57,52.71c0-.17,0-.34,0-.51ZM46.31,29.43A23.06,23.06,0,0,1,56.94,32a30,30,0,0,1-10.68,2A29.9,29.9,0,0,1,35.65,32,23,23,0,0,1,46.31,29.43Zm-.05,10.51a36,36,0,0,0,16.29-3.89,23.3,23.3,0,0,1,6.17,10.37c-5.16,1-9,5.36-9.73,11.36L57.69,73A23.19,23.19,0,0,1,34.84,73l-1.3-15.09v-.08a13.49,13.49,0,0,0-9.72-11.07A23.26,23.26,0,0,1,30,36.08,35.81,35.81,0,0,0,46.26,39.94ZM23,52.77a7.45,7.45,0,0,1,4.56,5.65l.78,9.11A23.21,23.21,0,0,1,23,52.77Zm10.16,51a.95.95,0,1,1,.94-.94A.95.95,0,0,1,33.19,103.73Zm26.58-.12a.95.95,0,0,1,0-1.89.95.95,0,1,1,0,1.89Zm-4-7.83a1.26,1.26,0,0,1-1.26.92H38.06a1.25,1.25,0,0,1-1.26-.91L35.43,79.86a29.13,29.13,0,0,0,21.67,0Zm8.42-28.13.79-9.23c.32-2.71,1.87-5.43,4.64-6.08,0,.13,0,.25,0,.37A23.21,23.21,0,0,1,64.15,67.65Z" transform="translate(-3.04 -2.83)"/><path class="cls-2" d="M107.24,110V2.83h21.57V17.22h-7.19V49.46H136V63.59H121.62V95.83h7.19V110Zm46.62-64.23a13.6,13.6,0,0,1-4,2.91,8.33,8.33,0,0,1-3.22.81H143V17.22H136V2.83h10.67a7.34,7.34,0,0,1,3.1.93,15.41,15.41,0,0,1,3.53,2.48,16,16,0,0,1,2.85,3.54,7.65,7.65,0,0,1,1.18,4V38.54a8.9,8.9,0,0,1-.87,3.48A12.38,12.38,0,0,1,153.86,45.74ZM143,95.83V63.59h3.72a7.34,7.34,0,0,1,3.1.93,16.43,16.43,0,0,1,3.53,2.42,15.07,15.07,0,0,1,2.85,3.41,7.34,7.34,0,0,1,1.18,3.9v25a7.43,7.43,0,0,1-1.05,3.53,17.5,17.5,0,0,1-2.55,3.54,14.84,14.84,0,0,1-3.22,2.66,6.1,6.1,0,0,1-3.1,1.06A.86.86,0,0,1,147,110a.77.77,0,0,0-.37-.06H136V95.83Z" transform="translate(-3.04 -2.83)"/><path class="cls-2" d="M173.32,2.83H202.1V17.22h-7.19V95.83h7.19V110H173.32V95.83h7.2V17.22h-7.2Z" transform="translate(-3.04 -2.83)"/><path class="cls-2" d="M232.23,49.58h17.85V63.71H228.76a7.42,7.42,0,0,1-3.17-.86,16.7,16.7,0,0,1-3.47-2.3,14,14,0,0,1-2.85-3.35,7.75,7.75,0,0,1-1.18-4.15V13.87a10,10,0,0,1,.62-2.29,16.51,16.51,0,0,1,1.92-3.72,14.16,14.16,0,0,1,3.29-3.41A7.77,7.77,0,0,1,228.76,3h10.66V17.34h-7.19Zm-14.14,32h14.14V96h7.19v14H228.76a8.08,8.08,0,0,1-3.29-.81,14.47,14.47,0,0,1-3.47-2.23,12.69,12.69,0,0,1-2.79-3.35,8.09,8.09,0,0,1-1.12-4.16V81.57Zm53.57-49.85H257.27V17.34H246.61V3h14.14a9.45,9.45,0,0,1,2.29.68,15.44,15.44,0,0,1,3.72,2.11,16.05,16.05,0,0,1,3.41,3.47,7.7,7.7,0,0,1,1.49,4.65L271.41,24Zm-3.72,74.9a10.44,10.44,0,0,1-4.09,2.66,11.36,11.36,0,0,1-3.1.69H246.61V96h10.66V63.71h3.48a8.84,8.84,0,0,1,2.42.69,15.49,15.49,0,0,1,3.65,2,16.11,16.11,0,0,1,3.35,3.35,7.45,7.45,0,0,1,1.49,4.59v25a7.33,7.33,0,0,1-1.12,3.85A17.15,17.15,0,0,1,267.94,106.62Z" transform="translate(-3.04 -2.83)"/><path class="cls-2" d="M298.56,110a7.85,7.85,0,0,1-3.47-.94,14.9,14.9,0,0,1-3.53-2.48,14.48,14.48,0,0,1-2.79-3.47,7.44,7.44,0,0,1-1.12-3.78V13.75a11.39,11.39,0,0,1,.56-2.11A15.43,15.43,0,0,1,290,8a14,14,0,0,1,3.34-3.53,8.32,8.32,0,0,1,5.21-1.62H312.7V17.22H302V95.83H312.7V110ZM334.27,2.83a7,7,0,0,1,3.78,1.24,17,17,0,0,1,3.48,3,16.69,16.69,0,0,1,2.48,3.6,7.3,7.3,0,0,1,.93,3.1V99.3a7.5,7.5,0,0,1-1.37,4.34,15.11,15.11,0,0,1-3.1,3.35,17.07,17.07,0,0,1-3.53,2.17,7.46,7.46,0,0,1-2.67.81H319.89V95.83h10.66V17.22H319.89V2.83Z" transform="translate(-3.04 -2.83)"/><path class="cls-2" d="M375.07,3,418,110H403.59L360.93,3ZM360.93,110V28l14.14,32.24V96h7.19v14ZM418,3V85.29L403.59,49.58V17.09h-6.95V3Z" transform="translate(-3.04 -2.83)"/></svg>