<svg id="Calque_1" data-name="Calque 1" xmlns="http://www.w3.org/2000/svg" viewBox="0 0 457.67 158.2"><defs><style>.cls-1{fill:#1d1d1b;}.cls-2{fill:#afca0b;}</style></defs><path class="cls-1" d="M194.05,134.89V126H172.16a43.69,43.69,0,0,0-10.58-20,53.93,53.93,0,0,0,21.86-43.34H174.5a45,45,0,0,1-19.83,37.3,43.58,43.58,0,0,0-50.33.06A45,45,0,0,1,84.43,62.62H75.49a53.94,53.94,0,0,0,22,43.41A43.57,43.57,0,0,0,86.93,126h-22v8.94h21c0,.26,0,.51,0,.77a43.69,43.69,0,0,0,18,35.35l2.55,29.74a10.34,10.34,0,1,0,13.86,9.72c0-.05,0-.11,0-.17h19a10.35,10.35,0,1,0,13.25-9.94l2.51-29.25a43.68,43.68,0,0,0,18.19-35.46c0-.26,0-.51,0-.77Zm-64.51-34a34.45,34.45,0,0,1,15.87,3.85,45,45,0,0,1-31.81,0A34.63,34.63,0,0,1,129.54,100.88Zm-.07,15.71a53.66,53.66,0,0,0,24.33-5.82A34.87,34.87,0,0,1,163,126.26c-7.72,1.43-13.51,8-14.54,17L146.53,166a34.64,34.64,0,0,1-34.13-.09l-1.93-22.55,0-.12c-.89-7.79-7-14.39-14.51-16.53a34.71,34.71,0,0,1,9.29-15.88A53.63,53.63,0,0,0,129.47,116.59ZM94.76,135.76c3.53,1.5,6.37,4.79,6.81,8.43l1.17,13.61A34.68,34.68,0,0,1,94.76,135.76Zm15.17,76.12a1.41,1.41,0,1,1,1.41-1.41A1.41,1.41,0,0,1,109.93,211.88Zm39.72-.18a1.41,1.41,0,1,1,1.41-1.41A1.42,1.42,0,0,1,149.65,211.7Zm-6-11.7a1.88,1.88,0,0,1-1.88,1.37H117.21a1.9,1.9,0,0,1-1.89-1.37l-2-23.78a43.51,43.51,0,0,0,32.36.06Zm12.57-42,1.19-13.79c.48-4.05,2.79-8.11,6.94-9.08,0,.19,0,.37,0,.55A34.57,34.57,0,0,1,156.18,158Z" transform="translate(-64.89 -62.62)"/><path class="cls-1" d="M211.79,195.44h2.44c1.31,0,2.16.44,2.23,1.61a1.46,1.46,0,0,1-1,1.49,1.55,1.55,0,0,1,1.15,1.75c0,1-.72,1.73-2.4,1.73h-2.42Zm1.26,2.62h1.25a.8.8,0,0,0,.91-.8c0-.46-.31-.8-.91-.8h-1.25Zm0,2.93h1.25c.73,0,1-.32,1-1s-.32-1-1-1h-1.25Z" transform="translate(-64.89 -62.62)"/><path class="cls-1" d="M218.07,202v-6.58h1.26V202Z" transform="translate(-64.89 -62.62)"/><path class="cls-1" d="M223.28,202.11c-1.79,0-2.76-1.23-2.76-3.38s1-3.38,2.76-3.38,2.76,1.23,2.76,3.38S225.08,202.11,223.28,202.11Zm0-5.71c-1,0-1.5.79-1.5,2.33s.47,2.32,1.5,2.32,1.51-.78,1.51-2.32S224.31,196.4,223.28,196.4Z" transform="translate(-64.89 -62.62)"/><path class="cls-1" d="M227.07,195.44h2.18c1.74,0,2.94,1,2.95,3.29S231,202,229.25,202h-2.18Zm1.26,5.52h.84c1.44,0,1.78-1.06,1.78-2.23s-.34-2.24-1.78-2.24h-.84Z" transform="translate(-64.89 -62.62)"/><path class="cls-1" d="M233.36,202v-6.58h1.26V202Z" transform="translate(-64.89 -62.62)"/><path class="cls-1" d="M235.63,195.44h1.24l1.16,4.85h0l1.22-4.85h1.24L238.77,202h-1.4Z" transform="translate(-64.89 -62.62)"/><path class="cls-1" d="M241.4,202v-6.58h4.36v1.05h-3.1v1.57h2.25v1.06h-2.25V201h3.2V202Z" transform="translate(-64.89 -62.62)"/><path class="cls-1" d="M246.94,202v-6.58h2.62a1.85,1.85,0,0,1,2.11,1.95,1.62,1.62,0,0,1-1.2,1.69l1.44,2.94h-1.39l-1.24-2.68H248.2V202Zm1.26-3.7h.93c1,0,1.28-.31,1.28-.93s-.37-.93-1.06-.93H248.2Z" transform="translate(-64.89 -62.62)"/><path class="cls-1" d="M256.16,197.19a1.21,1.21,0,0,0-1.18-.86c-.54,0-.93.22-.93.73,0,1.13,3.38.89,3.38,3,0,1.35-.84,2-2.3,2a2.6,2.6,0,0,1-2.46-1.56l1-.46a1.5,1.5,0,0,0,1.43,1c.63,0,1.11-.23,1.11-.87,0-1.29-3.39-1-3.39-3.06a1.91,1.91,0,0,1,2.12-1.84,2.41,2.41,0,0,1,2.33,1.48Z" transform="translate(-64.89 -62.62)"/><path class="cls-1" d="M258.83,202v-6.58h1.25V202Z" transform="translate(-64.89 -62.62)"/><path class="cls-1" d="M265.9,195.43v1.06h-1.73V202h-1.25v-5.53H261.2v-1.06Z" transform="translate(-64.89 -62.62)"/><path class="cls-1" d="M268.65,198l1.13-2.6h1.31l-1.81,3.95V202H268v-2.63l-1.81-3.95h1.31Z" transform="translate(-64.89 -62.62)"/><path class="cls-1" d="M276.59,195.43h1.57L280,202h-1.24l-.37-1.43h-2.07l-.4,1.43H274.7Zm0,4.13h1.53l-.74-2.86h0Z" transform="translate(-64.89 -62.62)"/><path class="cls-1" d="M280.92,202v-6.58h1.31l2.59,4.48h0v-4.48H286V202h-1.21l-2.69-4.69h0V202Z" transform="translate(-64.89 -62.62)"/><path class="cls-1" d="M287.5,195.44h2.18c1.74,0,2.94,1,2.95,3.29s-1.21,3.29-2.95,3.29H287.5Zm1.26,5.52h.84c1.44,0,1.77-1.06,1.77-2.23s-.33-2.24-1.77-2.24h-.84Z" transform="translate(-64.89 -62.62)"/><path class="cls-1" d="M297.15,202v-6.58h1.26V202Z" transform="translate(-64.89 -62.62)"/><path class="cls-1" d="M300.07,202v-6.58h1.31l2.59,4.48h0v-4.48h1.18V202H304l-2.69-4.69h0V202Z" transform="translate(-64.89 -62.62)"/><path class="cls-1" d="M306.66,202v-6.58h4.19v1.05h-2.94v1.57h2.2v1.06h-2.2V202Z" transform="translate(-64.89 -62.62)"/><path class="cls-1" d="M311.75,202v-6.58h2.62a1.85,1.85,0,0,1,2.11,1.95,1.64,1.64,0,0,1-1.21,1.69l1.45,2.94h-1.39l-1.24-2.68H313V202Zm1.26-3.7h.92c1,0,1.29-.31,1.29-.93s-.37-.93-1.07-.93H313Z" transform="translate(-64.89 -62.62)"/><path class="cls-1" d="M319.16,195.43h1.57L322.6,202h-1.25l-.37-1.43h-2.07l-.39,1.43h-1.25Zm0,4.13h1.53L320,196.7h0Z" transform="translate(-64.89 -62.62)"/><path class="cls-1" d="M326.56,197.19a1.21,1.21,0,0,0-1.18-.86c-.54,0-.93.22-.93.73,0,1.13,3.38.89,3.38,3,0,1.35-.84,2-2.3,2a2.61,2.61,0,0,1-2.46-1.56l1-.46a1.5,1.5,0,0,0,1.43,1c.63,0,1.11-.23,1.11-.87,0-1.29-3.39-1-3.39-3.06a1.92,1.92,0,0,1,2.12-1.84,2.4,2.4,0,0,1,2.33,1.48Z" transform="translate(-64.89 -62.62)"/><path class="cls-1" d="M333.22,195.43v1.06H331.5V202h-1.26v-5.53h-1.72v-1.06Z" transform="translate(-64.89 -62.62)"/><path class="cls-1" d="M334.14,202v-6.58h2.62a1.85,1.85,0,0,1,2.11,1.95,1.63,1.63,0,0,1-1.21,1.69l1.45,2.94h-1.39l-1.24-2.68h-1.09V202Zm1.25-3.7h.93c1,0,1.29-.31,1.29-.93s-.38-.93-1.07-.93h-1.15Z" transform="translate(-64.89 -62.62)"/><path class="cls-1" d="M344.09,195.44h1.26v4.12a2.53,2.53,0,1,1-5.05,0v-4.12h1.26v4.17c0,1.07.42,1.44,1.27,1.44s1.26-.37,1.26-1.44Z" transform="translate(-64.89 -62.62)"/><path class="cls-1" d="M350.22,197.35a1.22,1.22,0,0,0-1.19-.95c-.84,0-1.35.79-1.35,2.33s.44,2.32,1.39,2.32c.56,0,.91-.2,1.28-1l1.17.31a2.41,2.41,0,0,1-2.45,1.73c-1.68,0-2.64-1.23-2.64-3.38s1-3.38,2.64-3.38a2.11,2.11,0,0,1,2.29,1.73Z" transform="translate(-64.89 -62.62)"/><path class="cls-1" d="M356.63,195.43v1.06h-1.72V202h-1.26v-5.53h-1.72v-1.06Z" transform="translate(-64.89 -62.62)"/><path class="cls-1" d="M361.39,195.44h1.26v4.12a2.53,2.53,0,1,1-5,0v-4.12h1.26v4.17c0,1.07.42,1.44,1.27,1.44s1.26-.37,1.26-1.44Z" transform="translate(-64.89 -62.62)"/><path class="cls-1" d="M364.16,202v-6.58h2.62a1.85,1.85,0,0,1,2.11,1.95,1.62,1.62,0,0,1-1.2,1.69l1.44,2.94h-1.39l-1.24-2.68h-1.08V202Zm1.26-3.7h.93c1,0,1.28-.31,1.28-.93s-.37-.93-1.07-.93h-1.14Z" transform="translate(-64.89 -62.62)"/><path class="cls-1" d="M370.33,202v-6.58h4.35v1.05h-3.1v1.57h2.25v1.06h-2.25V201h3.2V202Z" transform="translate(-64.89 -62.62)"/><path class="cls-1" d="M382.34,197.19a1.21,1.21,0,0,0-1.17-.86c-.55,0-.94.22-.94.73,0,1.13,3.39.89,3.39,3,0,1.35-.85,2-2.31,2a2.62,2.62,0,0,1-2.46-1.56l1-.46a1.5,1.5,0,0,0,1.43,1c.63,0,1.11-.23,1.11-.87,0-1.29-3.39-1-3.39-3.06a1.92,1.92,0,0,1,2.13-1.84,2.4,2.4,0,0,1,2.32,1.48Z" transform="translate(-64.89 -62.62)"/><path class="cls-1" d="M386.65,198l1.13-2.6h1.31l-1.81,3.95V202H386v-2.63l-1.81-3.95h1.31Z" transform="translate(-64.89 -62.62)"/><path class="cls-1" d="M390,202v-6.58h1.31l2.59,4.48h0v-4.48h1.18V202h-1.21l-2.69-4.69h0V202Z" transform="translate(-64.89 -62.62)"/><path class="cls-1" d="M396.59,202v-6.58h4.35v1.05h-3.09v1.57h2.25v1.06h-2.25V201H401V202Z" transform="translate(-64.89 -62.62)"/><path class="cls-1" d="M402.13,202v-6.58h2.62a1.84,1.84,0,0,1,2.1,1.95,1.62,1.62,0,0,1-1.2,1.69L407.1,202h-1.39l-1.24-2.68h-1.09V202Zm1.25-3.7h.93c1,0,1.29-.31,1.29-.93s-.38-.93-1.07-.93h-1.15Z" transform="translate(-64.89 -62.62)"/><path class="cls-1" d="M411.76,197.33a1.31,1.31,0,0,0-1.32-.93c-.93,0-1.38.93-1.38,2.39s.52,2.26,1.39,2.26a1.31,1.31,0,0,0,1.38-1.3h-1.25v-1.06H413V202h-.91v-.68a2.08,2.08,0,0,1-1.71.77c-1.79,0-2.62-1.42-2.62-3.28,0-1.68.64-3.48,2.74-3.48a2.32,2.32,0,0,1,2.39,1.67Z" transform="translate(-64.89 -62.62)"/><path class="cls-1" d="M414.52,202v-6.58h1.26V202Z" transform="translate(-64.89 -62.62)"/><path class="cls-1" d="M417.47,202v-6.58h4.35v1.05h-3.1v1.57H421v1.06h-2.25V201h3.2V202Z" transform="translate(-64.89 -62.62)"/><path class="cls-1" d="M426.11,197.19a1.21,1.21,0,0,0-1.17-.86c-.55,0-.94.22-.94.73,0,1.13,3.38.89,3.38,3,0,1.35-.84,2-2.3,2a2.61,2.61,0,0,1-2.46-1.56l1-.46a1.5,1.5,0,0,0,1.43,1c.63,0,1.11-.23,1.11-.87,0-1.29-3.39-1-3.39-3.06a1.92,1.92,0,0,1,2.13-1.84,2.4,2.4,0,0,1,2.32,1.48Z" transform="translate(-64.89 -62.62)"/><path class="cls-1" d="M433.27,195.43h1.57L436.7,202h-1.24l-.37-1.43H433l-.39,1.43h-1.24Zm0,4.13h1.53l-.74-2.86h0Z" transform="translate(-64.89 -62.62)"/><path class="cls-1" d="M437.59,202v-6.58h1.31l2.59,4.48h0v-4.48h1.19V202h-1.21l-2.69-4.69h0V202Z" transform="translate(-64.89 -62.62)"/><path class="cls-1" d="M444.17,195.44h2.18c1.74,0,2.94,1,2.95,3.29s-1.21,3.29-2.95,3.29h-2.18Zm1.26,5.52h.84c1.44,0,1.77-1.06,1.77-2.23s-.33-2.24-1.77-2.24h-.84Z" transform="translate(-64.89 -62.62)"/><path class="cls-1" d="M456,202.11c-1.8,0-2.76-1.23-2.76-3.38s1-3.38,2.76-3.38,2.76,1.23,2.76,3.38S457.77,202.11,456,202.11Zm0-5.71c-1,0-1.51.79-1.51,2.33s.47,2.32,1.51,2.32,1.5-.78,1.5-2.32S457,196.4,456,196.4Z" transform="translate(-64.89 -62.62)"/><path class="cls-1" d="M459.68,202v-6.58h2.4c1.42,0,2.32.59,2.32,2s-.9,2-2.32,2h-1.15V202Zm1.25-3.68h1c.94,0,1.21-.36,1.21-.94s-.27-.94-1.21-.94h-1Z" transform="translate(-64.89 -62.62)"/><path class="cls-1" d="M465.27,202v-6.58h2.4c1.43,0,2.33.59,2.33,2s-.9,2-2.33,2h-1.14V202Zm1.26-3.68h1c1,0,1.21-.36,1.21-.94s-.26-.94-1.21-.94h-1Z" transform="translate(-64.89 -62.62)"/><path class="cls-1" d="M473.28,202.11c-1.8,0-2.76-1.23-2.76-3.38s1-3.38,2.76-3.38,2.76,1.23,2.76,3.38S475.07,202.11,473.28,202.11Zm0-5.71c-1,0-1.51.79-1.51,2.33s.47,2.32,1.51,2.32,1.5-.78,1.5-2.32S474.3,196.4,473.28,196.4Z" transform="translate(-64.89 -62.62)"/><path class="cls-1" d="M477.06,202v-6.58h2.63a1.85,1.85,0,0,1,2.1,1.95,1.62,1.62,0,0,1-1.2,1.69L482,202h-1.4l-1.23-2.68h-1.09V202Zm1.26-3.7h.93c1,0,1.29-.31,1.29-.93s-.38-.93-1.07-.93h-1.15Z" transform="translate(-64.89 -62.62)"/><path class="cls-1" d="M487.2,195.43v1.06h-1.73V202h-1.25v-5.53h-1.73v-1.06Z" transform="translate(-64.89 -62.62)"/><path class="cls-1" d="M492,195.44h1.25v4.12a2.52,2.52,0,1,1-5,0v-4.12h1.26v4.17c0,1.07.42,1.44,1.26,1.44s1.27-.37,1.27-1.44Z" transform="translate(-64.89 -62.62)"/><path class="cls-1" d="M494.75,202v-6.58h1.32l2.58,4.48h0v-4.48h1.19V202h-1.22L496,197.33h0V202Z" transform="translate(-64.89 -62.62)"/><path class="cls-1" d="M501.51,202v-6.58h1.26V202Z" transform="translate(-64.89 -62.62)"/><path class="cls-1" d="M508.58,195.43v1.06h-1.72V202H505.6v-5.53h-1.72v-1.06Z" transform="translate(-64.89 -62.62)"/><path class="cls-1" d="M509.68,202v-6.58h1.26V202Z" transform="translate(-64.89 -62.62)"/><path class="cls-1" d="M512.63,202v-6.58H517v1.05h-3.1v1.57h2.25v1.06h-2.25V201h3.2V202Z" transform="translate(-64.89 -62.62)"/><path class="cls-1" d="M521.29,197.19a1.21,1.21,0,0,0-1.18-.86c-.54,0-.94.22-.94.73,0,1.13,3.39.89,3.39,3,0,1.35-.84,2-2.3,2a2.6,2.6,0,0,1-2.46-1.56l1-.46a1.5,1.5,0,0,0,1.43,1c.63,0,1.11-.23,1.11-.87,0-1.29-3.39-1-3.39-3.06a1.91,1.91,0,0,1,2.12-1.84,2.41,2.41,0,0,1,2.33,1.48Z" transform="translate(-64.89 -62.62)"/><path class="cls-1" d="M211.79,215.68V209.1H216v1.06h-2.93v1.56h2.19v1.06h-2.19v2.9Z" transform="translate(-64.89 -62.62)"/><path class="cls-1" d="M219.35,215.77c-1.79,0-2.76-1.23-2.76-3.38s1-3.38,2.76-3.38,2.76,1.23,2.76,3.38S221.14,215.77,219.35,215.77Zm0-5.7c-1,0-1.5.78-1.5,2.32s.46,2.32,1.5,2.32,1.5-.78,1.5-2.32S220.38,210.07,219.35,210.07Z" transform="translate(-64.89 -62.62)"/><path class="cls-1" d="M223.28,215.68V209.1h2.62a1.85,1.85,0,0,1,2.1,2,1.64,1.64,0,0,1-1.2,1.7l1.45,2.93h-1.39L225.62,213h-1.09v2.68Zm1.25-3.7h.93c1,0,1.29-.31,1.29-.93s-.38-.93-1.07-.93h-1.15Z" transform="translate(-64.89 -62.62)"/><path class="cls-1" d="M233.08,215.68V209.1h4.35v1.06h-3.1v1.56h2.25v1.06h-2.25v1.84h3.2v1.06Z" transform="translate(-64.89 -62.62)"/><path class="cls-1" d="M242.6,209.1h1.26v4.12a2.53,2.53,0,1,1-5.05,0V209.1h1.26v4.17c0,1.07.42,1.44,1.27,1.44s1.26-.37,1.26-1.44Z" transform="translate(-64.89 -62.62)"/><path class="cls-1" d="M245.51,215.68V209.1h2.62a1.85,1.85,0,0,1,2.11,2,1.64,1.64,0,0,1-1.2,1.7l1.44,2.93h-1.39L247.85,213h-1.08v2.68Zm1.26-3.7h.93c1,0,1.28-.31,1.28-.93s-.37-.93-1.07-.93h-1.14Z" transform="translate(-64.89 -62.62)"/><path class="cls-1" d="M254.08,215.77c-1.79,0-2.76-1.23-2.76-3.38s1-3.38,2.76-3.38,2.76,1.23,2.76,3.38S255.88,215.77,254.08,215.77Zm0-5.7c-1,0-1.5.78-1.5,2.32s.46,2.32,1.5,2.32,1.51-.78,1.51-2.32S255.11,210.07,254.08,210.07Z" transform="translate(-64.89 -62.62)"/><path class="cls-1" d="M257.92,215.68V209.1h2.4c1.42,0,2.32.59,2.32,2s-.9,2-2.32,2h-1.15v2.66Zm1.25-3.68h1c.94,0,1.21-.36,1.21-.94s-.27-.94-1.21-.94h-1Z" transform="translate(-64.89 -62.62)"/><path class="cls-1" d="M263.8,215.68V209.1h4.36v1.06h-3.1v1.56h2.25v1.06h-2.25v1.84h3.2v1.06Z" transform="translate(-64.89 -62.62)"/><path class="cls-1" d="M270.79,209.09h1.56l1.87,6.59H273l-.36-1.42h-2.08l-.39,1.42h-1.25Zm0,4.13h1.53l-.74-2.86h0Z" transform="translate(-64.89 -62.62)"/><path class="cls-1" d="M275.25,215.68V209.1h1.31l2.59,4.48h0V209.1h1.18v6.58h-1.21L276.45,211h0v4.68Z" transform="translate(-64.89 -62.62)"/><path class="cls-1" d="M289.64,209.09v1.06h-1.72v5.53h-1.26v-5.53h-1.72v-1.06Z" transform="translate(-64.89 -62.62)"/><path class="cls-1" d="M290.71,215.68V209.1h2.62a1.85,1.85,0,0,1,2.11,2,1.63,1.63,0,0,1-1.21,1.7l1.45,2.93h-1.39L293.05,213H292v2.68ZM292,212h.93c1,0,1.28-.31,1.28-.93s-.37-.93-1.07-.93H292Z" transform="translate(-64.89 -62.62)"/><path class="cls-1" d="M298.27,209.09h1.56l1.87,6.59h-1.25l-.36-1.42H298l-.39,1.42h-1.25Zm0,4.13h1.54l-.74-2.86h0Z" transform="translate(-64.89 -62.62)"/><path class="cls-1" d="M302.73,215.68V209.1H304l2.59,4.48h0V209.1h1.18v6.58h-1.21L303.93,211h0v4.68Z" transform="translate(-64.89 -62.62)"/><path class="cls-1" d="M312.56,210.85a1.22,1.22,0,0,0-1.18-.86c-.54,0-.93.22-.93.73,0,1.13,3.38.9,3.38,3,0,1.35-.84,2-2.3,2a2.61,2.61,0,0,1-2.46-1.56l1-.45a1.5,1.5,0,0,0,1.43,1c.63,0,1.11-.24,1.11-.88,0-1.29-3.39-1-3.39-3.06a1.92,1.92,0,0,1,2.12-1.84,2.41,2.41,0,0,1,2.33,1.49Z" transform="translate(-64.89 -62.62)"/><path class="cls-1" d="M315.1,215.68V209.1h2.41c1.42,0,2.32.59,2.32,2s-.9,2-2.32,2h-1.15v2.66Zm1.26-3.68h1c.95,0,1.21-.36,1.21-.94s-.26-.94-1.21-.94h-1Z" transform="translate(-64.89 -62.62)"/><path class="cls-1" d="M323.25,215.77c-1.79,0-2.76-1.23-2.76-3.38s1-3.38,2.76-3.38,2.76,1.23,2.76,3.38S325.05,215.77,323.25,215.77Zm0-5.7c-1,0-1.5.78-1.5,2.32s.46,2.32,1.5,2.32,1.51-.78,1.51-2.32S324.28,210.07,323.25,210.07Z" transform="translate(-64.89 -62.62)"/><path class="cls-1" d="M327.18,215.68V209.1h2.62a1.85,1.85,0,0,1,2.11,2,1.64,1.64,0,0,1-1.2,1.7l1.44,2.93h-1.39L329.52,213h-1.08v2.68Zm1.26-3.7h.93c1,0,1.28-.31,1.28-.93s-.37-.93-1.07-.93h-1.14Z" transform="translate(-64.89 -62.62)"/><path class="cls-1" d="M337.44,209.09v1.06h-1.73v5.53h-1.25v-5.53h-1.73v-1.06Z" transform="translate(-64.89 -62.62)"/><path class="cls-1" d="M342,215.68V209.1h1.31l2.59,4.48h0V209.1h1.19v6.58h-1.21L343.23,211h0v4.68Z" transform="translate(-64.89 -62.62)"/><path class="cls-1" d="M348.8,215.68V209.1h4.36v1.06h-3.1v1.56h2.25v1.06h-2.25v1.84h3.2v1.06Z" transform="translate(-64.89 -62.62)"/><path class="cls-1" d="M358.65,209.09v1.06h-1.72v5.53h-1.26v-5.53H354v-1.06Z" transform="translate(-64.89 -62.62)"/><path class="cls-1" d="M359.18,209.1h1.17l.83,4.44h0l.94-4.44h1.29l.87,4.44h0l.9-4.44h1.17L365,215.68h-1.28l-1-4.68h0l-.95,4.68h-1.28Z" transform="translate(-64.89 -62.62)"/><path class="cls-1" d="M369.78,215.77c-1.79,0-2.76-1.23-2.76-3.38s1-3.38,2.76-3.38,2.76,1.23,2.76,3.38S371.58,215.77,369.78,215.77Zm0-5.7c-1,0-1.5.78-1.5,2.32s.46,2.32,1.5,2.32,1.5-.78,1.5-2.32S370.81,210.07,369.78,210.07Z" transform="translate(-64.89 -62.62)"/><path class="cls-1" d="M373.71,215.68V209.1h2.62a1.86,1.86,0,0,1,2.11,2,1.65,1.65,0,0,1-1.21,1.7l1.45,2.93h-1.39L376.05,213H375v2.68ZM375,212h.93c1,0,1.29-.31,1.29-.93s-.38-.93-1.07-.93H375Z" transform="translate(-64.89 -62.62)"/><path class="cls-1" d="M380,215.68V209.1h1.25V212h0l2.22-2.94h1.45L383,211.57l2.17,4.11h-1.4l-1.63-3.13-.92,1.15v2Z" transform="translate(-64.89 -62.62)"/><path class="cls-1" d="M389.31,210.85a1.21,1.21,0,0,0-1.18-.86c-.54,0-.93.22-.93.73,0,1.13,3.39.9,3.39,3,0,1.35-.85,2-2.31,2a2.62,2.62,0,0,1-2.46-1.56l1-.45a1.5,1.5,0,0,0,1.43,1c.63,0,1.11-.24,1.11-.88,0-1.29-3.39-1-3.39-3.06a1.92,1.92,0,0,1,2.12-1.84,2.4,2.4,0,0,1,2.33,1.49Z" transform="translate(-64.89 -62.62)"/><path class="cls-2" d="M211.79,183V75.91h21.58V90.29h-7.2v32.24h14.39v14.13H226.17V168.9h7.2V183Zm46.62-64.23a13.09,13.09,0,0,1-4,2.91,8.33,8.33,0,0,1-3.23.81H247.5V90.29h-6.94V75.91h10.66a7.3,7.3,0,0,1,3.1.93,15.46,15.46,0,0,1,3.54,2.48,16,16,0,0,1,2.85,3.53,7.78,7.78,0,0,1,1.18,4v24.8a9,9,0,0,1-.87,3.47A12.24,12.24,0,0,1,258.41,118.81ZM247.5,168.9V136.66h3.72a7.3,7.3,0,0,1,3.1.93,16.49,16.49,0,0,1,3.54,2.42,15.34,15.34,0,0,1,2.85,3.41,7.49,7.49,0,0,1,1.18,3.91v25a7.49,7.49,0,0,1-1.06,3.53,17.67,17.67,0,0,1-2.54,3.53,14.85,14.85,0,0,1-3.22,2.67,6.2,6.2,0,0,1-3.1,1,.91.91,0,0,1-.38-.06.86.86,0,0,0-.37-.06H240.56V168.9Z" transform="translate(-64.89 -62.62)"/><path class="cls-2" d="M277.88,75.91h28.77V90.29h-7.19V168.9h7.19V183H277.88V168.9h7.19V90.29h-7.19Z" transform="translate(-64.89 -62.62)"/><path class="cls-2" d="M336.78,122.65h17.86v14.14H333.31a7.44,7.44,0,0,1-3.16-.87,16.14,16.14,0,0,1-3.47-2.29,13.73,13.73,0,0,1-2.85-3.35,7.77,7.77,0,0,1-1.18-4.15V86.94a9.63,9.63,0,0,1,.62-2.29,15.73,15.73,0,0,1,1.92-3.72,14.15,14.15,0,0,1,3.29-3.41A7.82,7.82,0,0,1,333.31,76H344V90.41h-7.19Zm-14.13,32h14.13V169H344v14H333.31a8,8,0,0,1-3.28-.81,14.41,14.41,0,0,1-3.48-2.23,12.91,12.91,0,0,1-2.79-3.35,8.14,8.14,0,0,1-1.11-4.15V154.64Zm53.56-49.84H361.83V90.41H351.17V76H365.3a9.48,9.48,0,0,1,2.3.68,16.19,16.19,0,0,1,3.72,2.11,16,16,0,0,1,3.4,3.47,7.68,7.68,0,0,1,1.49,4.65L376,97.11Zm-3.72,74.89a10.44,10.44,0,0,1-4.09,2.67,11.56,11.56,0,0,1-3.1.68H351.17V169h10.66V136.79h3.47a9,9,0,0,1,2.42.68,15.76,15.76,0,0,1,3.66,2.05,16,16,0,0,1,3.34,3.34,7.42,7.42,0,0,1,1.49,4.59V172.5a7.4,7.4,0,0,1-1.11,3.84A17.2,17.2,0,0,1,372.49,179.69Z" transform="translate(-64.89 -62.62)"/><path class="cls-2" d="M403.12,183a7.79,7.79,0,0,1-3.47-.93,15.46,15.46,0,0,1-3.54-2.48,15.2,15.2,0,0,1-2.79-3.47,7.52,7.52,0,0,1-1.11-3.78V86.82a10.56,10.56,0,0,1,.56-2.11,16,16,0,0,1,1.79-3.66,14.22,14.22,0,0,1,3.35-3.53,8.34,8.34,0,0,1,5.21-1.61h14.13V90.29H406.59V168.9h10.66V183ZM438.83,75.91a6.92,6.92,0,0,1,3.78,1.24,17.22,17.22,0,0,1,3.47,3,16.34,16.34,0,0,1,2.48,3.6,7.3,7.3,0,0,1,.93,3.1v85.56a7.46,7.46,0,0,1-1.36,4.33,15.13,15.13,0,0,1-3.1,3.35,16.71,16.71,0,0,1-3.54,2.17,7.43,7.43,0,0,1-2.66.81H424.45V168.9h10.66V90.29H424.45V75.91Z" transform="translate(-64.89 -62.62)"/><path class="cls-2" d="M479.62,76l42.9,107H508.14L465.49,76ZM465.49,183v-82l14.13,32.24V169h7.19v14Zm57-107v82.33l-14.38-35.71V90.17H501.2V76Z" transform="translate(-64.89 -62.62)"/></svg>